<svg xmlns="http://www.w3.org/2000/svg" width="25.969" height="26" viewBox="0 0 25.969 26">
  <metadata><?xpacket begin="﻿" id="W5M0MpCehiHzreSzNTczkc9d"?>
<x:xmpmeta xmlns:x="adobe:ns:meta/" x:xmptk="Adobe XMP Core 5.6-c138 79.159824, 2016/09/14-01:09:01        ">
   <rdf:RDF xmlns:rdf="http://www.w3.org/1999/02/22-rdf-syntax-ns#">
      <rdf:Description rdf:about=""/>
   </rdf:RDF>
</x:xmpmeta>
                                                                                                    
                                                                                                    
                                                                                                    
                                                                                                    
                                                                                                    
                                                                                                    
                                                                                                    
                                                                                                    
                                                                                                    
                                                                                                    
                                                                                                    
                                                                                                    
                                                                                                    
                                                                                                    
                                                                                                    
                                                                                                    
                                                                                                    
                                                                                                    
                                                                                                    
                                                                                                    
                           
<?xpacket end="w"?></metadata>
<defs>
    <style>
      .cls-1 {
        fill-rule: evenodd;
        fill: #5b88aa;
        }
    </style>
  </defs>
  <path class="cls-1" d="M13.033,0a13,13,0,1,0,13,13A13.015,13.015,0,0,0,13.033,0Zm0.016,24.31A11.293,11.293,0,1,1,24.342,13.016,11.306,11.306,0,0,1,13.049,24.31ZM13.032,5.515a1.576,1.576,0,1,0,1.576,1.576A1.578,1.578,0,0,0,13.032,5.515Zm0,5.515a1.182,1.182,0,0,0-1.182,1.182V19.3a1.182,1.182,0,1,0,2.364,0V12.212A1.182,1.182,0,0,0,13.033,11.03Z" transform="translate(-0.031)"/>
</svg>
