<svg xmlns="http://www.w3.org/2000/svg" width="25.969" height="26" viewBox="0 0 25.969 26">
  <metadata><?xpacket begin="﻿" id="W5M0MpCehiHzreSzNTczkc9d"?>
<x:xmpmeta xmlns:x="adobe:ns:meta/" x:xmptk="Adobe XMP Core 5.6-c138 79.159824, 2016/09/14-01:09:01        ">
   <rdf:RDF xmlns:rdf="http://www.w3.org/1999/02/22-rdf-syntax-ns#">
      <rdf:Description rdf:about=""/>
   </rdf:RDF>
</x:xmpmeta>
                                                                                                    
                                                                                                    
                                                                                                    
                                                                                                    
                                                                                                    
                                                                                                    
                                                                                                    
                                                                                                    
                                                                                                    
                                                                                                    
                                                                                                    
                                                                                                    
                                                                                                    
                                                                                                    
                                                                                                    
                                                                                                    
                                                                                                    
                                                                                                    
                                                                                                    
                                                                                                    
                           
<?xpacket end="w"?></metadata>
<defs>
    <style>
      .cls-1 {
        fill-rule: evenodd;
        fill:#fff;
      }
    </style>
  </defs>
  <path class="cls-1" d="M22.511,13.658H12.377V3.526a0.734,0.734,0,0,0-.737-0.737A11.605,11.605,0,1,0,23.248,14.395,0.741,0.741,0,0,0,22.511,13.658ZM11.64,24.526A10.131,10.131,0,0,1,10.9,4.291v10.1a0.734,0.734,0,0,0,.737.737H21.747A10.142,10.142,0,0,1,11.64,24.526ZM26.033,11.567A11.6,11.6,0,0,0,14.425,0a0.734,0.734,0,0,0-.737.737V11.605a0.734,0.734,0,0,0,.737.737H25.3a0.734,0.734,0,0,0,.737-0.737V11.567Zm-10.871-.693V1.507a10.139,10.139,0,0,1,9.369,9.367H15.162Z" transform="translate(-0.031)"/>
</svg>
