<?xml version="1.0" encoding="utf-8"?>
<!-- Generator: Adobe Illustrator 21.1.0, SVG Export Plug-In . SVG Version: 6.00 Build 0)  -->
<svg version="1.1" id="Layer_1" xmlns="http://www.w3.org/2000/svg" xmlns:xlink="http://www.w3.org/1999/xlink" x="0px" y="0px"
	 viewBox="0 0 26 26" style="enable-background:new 0 0 26 26; fill: #fff;" xml:space="preserve">
<path d="M12.8,14H13c1.4,0,2.8-0.6,3.7-1.6c2-2.3,1.7-6.3,1.7-6.7c-0.1-2.9-1.5-4.2-2.6-4.9C15,0.3,14,0,13,0h-0.1
	c-1,0-2,0.3-2.9,0.7c-1.1,0.6-2.5,2-2.6,4.9C7.4,6,7,10,9.1,12.4C10,13.4,11.4,14,12.8,14z M8.8,5.8C8.8,5.8,8.8,5.7,8.8,5.8
	c0.2-3.9,2.9-4.3,4-4.3h0.1c1.4,0,3.9,0.6,4,4.3c0,0,0,0,0,0c0,0,0.4,3.7-1.3,5.6c-0.7,0.8-1.7,1.2-2.7,1.2h-0.1c-1,0-2-0.4-2.7-1.1
	C8.5,9.5,8.8,5.8,8.8,5.8z M23.8,20.7L23.8,20.7c0-0.1,0-0.1,0-0.2c0-1.1-0.1-3.6-2.4-4.4l-0.1,0c-1.6-0.4-3.1-1.1-4.4-2
	c-0.3-0.2-0.8-0.2-1,0.2c0,0,0,0,0,0c-0.2,0.3-0.1,0.8,0.2,1c1.5,1,3.1,1.8,4.8,2.2c1.2,0.4,1.4,1.8,1.4,3c0,0,0,0.1,0,0.1
	c0,0.6,0,1.1-0.1,1.7c-2.9,1.5-6.1,2.3-9.4,2.2c-3.3,0.1-6.5-0.7-9.4-2.2c-0.1-0.6-0.1-1.1-0.1-1.7c0,0,0-0.1,0-0.1
	c0-1.2,0.2-2.6,1.4-3c1.7-0.5,3.4-1.2,4.9-2.2c0.3-0.2,0.4-0.7,0.2-1c-0.2-0.3-0.7-0.4-1-0.2c0,0,0,0,0,0c-1.4,0.9-2.8,1.6-4.4,2
	c0,0,0,0-0.1,0C2.1,16.9,2,19.4,2,20.5c0,0,0,0.1,0,0.1v0c0,0.8,0.1,1.6,0.3,2.4c0.1,0.1,0.2,0.3,0.3,0.3c0.2,0.1,4,2.6,10.4,2.6
	s10.2-2.5,10.4-2.6c0.1-0.1,0.2-0.2,0.3-0.3C23.8,22.3,23.9,21.5,23.8,20.7z"/>
</svg>
