<svg xmlns="http://www.w3.org/2000/svg" width="20" height="26" viewBox="0 0 20 26">
  <metadata><?xpacket begin="﻿" id="W5M0MpCehiHzreSzNTczkc9d"?>
<x:xmpmeta xmlns:x="adobe:ns:meta/" x:xmptk="Adobe XMP Core 5.6-c138 79.159824, 2016/09/14-01:09:01        ">
   <rdf:RDF xmlns:rdf="http://www.w3.org/1999/02/22-rdf-syntax-ns#">
      <rdf:Description rdf:about=""/>
   </rdf:RDF>
</x:xmpmeta>
                                                                                                    
                                                                                                    
                                                                                                    
                                                                                                    
                                                                                                    
                                                                                                    
                                                                                                    
                                                                                                    
                                                                                                    
                                                                                                    
                                                                                                    
                                                                                                    
                                                                                                    
                                                                                                    
                                                                                                    
                                                                                                    
                                                                                                    
                                                                                                    
                                                                                                    
                                                                                                    
                           
<?xpacket end="w"?></metadata>
<defs>
    <style>
      .cls-1 {
        fill-rule: evenodd;
        fill:#5b88aa;
        }
    </style>
  </defs>
  <path id="Forma_1" data-name="Forma 1" class="cls-1" d="M17.644,0H3V26H23V5.454Zm-0.6,1.479,4.5,4.587h-4.5V1.479ZM4.277,24.7V1.3H15.766V7.367h5.957V24.7H4.277ZM18.319,8.667H11.511a0.575,0.575,0,0,0-.425.65,0.575,0.575,0,0,0,.425.65h6.808a0.575,0.575,0,0,0,.426-0.65A0.575,0.575,0,0,0,18.319,8.667ZM9.968,7.895L8.138,9.386,7.556,8.794a0.42,0.42,0,0,0-.6,0,0.438,0.438,0,0,0,0,.613l0.851,0.867a0.419,0.419,0,0,0,.566.032L10.5,8.572a0.439,0.439,0,0,0,.066-0.609A0.42,0.42,0,0,0,9.968,7.895Zm8.351,5.538H11.511a0.575,0.575,0,0,0-.425.65,0.575,0.575,0,0,0,.425.65h6.808a0.575,0.575,0,0,0,.426-0.65A0.575,0.575,0,0,0,18.319,13.433Zm-8.351-.772-1.83,1.491L7.556,13.56a0.42,0.42,0,0,0-.6,0,0.438,0.438,0,0,0,0,.613L7.806,15.04a0.419,0.419,0,0,0,.566.032L10.5,13.338a0.439,0.439,0,0,0,.066-0.609A0.42,0.42,0,0,0,9.968,12.662ZM18.319,18.2H11.511a0.709,0.709,0,0,0,0,1.3h6.808A0.709,0.709,0,0,0,18.319,18.2Zm-8.351-.772-1.83,1.491-0.582-.592a0.42,0.42,0,0,0-.6,0,0.438,0.438,0,0,0,0,.613l0.851,0.867a0.42,0.42,0,0,0,.566.032L10.5,18.105a0.439,0.439,0,0,0,.066-0.609A0.42,0.42,0,0,0,9.968,17.428Z" transform="translate(-3)"/>
</svg>
