<svg id="Layer_1" data-name="Layer 1" xmlns="http://www.w3.org/2000/svg" viewBox="0 0 247.05 265.05"><defs><style>.cls-1{fill:#0be5dd;}.cls-2{fill:#ff5f40;}.cls-3{fill:#3c7099;}.cls-4{font-size:115.95px;fill:#fff;font-family:AvenirNext-DemiBold, Avenir Next;font-weight:700;letter-spacing:-0.06em;}</style></defs><title>circleblack-totumRiskScore</title><path class="cls-1" d="M235.94,71.38l7.8-4.5A141.53,141.53,0,0,0,128,0V9A132.53,132.53,0,0,1,235.94,71.38Z"/><path class="cls-2" d="M119.1,53.79,119,18.08A123.52,123.52,0,0,0,30.63,222.94l26-24.46A87.84,87.84,0,0,1,119.1,53.79Z"/><path class="cls-3" d="M232.73,83.74,201.8,101.62A87.85,87.85,0,0,1,62.82,205l-26,24.48A123.54,123.54,0,0,0,232.73,83.74Z"/><path class="cls-1" d="M197.3,93.83,228.22,76A123.44,123.44,0,0,0,128,18.08V53.79A87.78,87.78,0,0,1,197.3,93.83Z"/></svg>